<?xml version="1.0" encoding="utf-8"?>
<!-- Generator: Adobe Illustrator 27.0.0, SVG Export Plug-In . SVG Version: 6.00 Build 0)  -->
<svg version="1.1" id="Layer_1" xmlns="http://www.w3.org/2000/svg" xmlns:xlink="http://www.w3.org/1999/xlink" x="0px" y="0px"
	 viewBox="0 0 190 198" style="enable-background:new 0 0 190 198;" xml:space="preserve">
<path d="M162,99l27-31l-40-8l4-41l-37,16L95,0L74,35L37,19l4,41L1,68l27,31L1,130l40,8l-4,41l37-16l21,35l21-35l37,16l-4-41l40-8
	L162,99z M118,132c-7,5-23,40-23,40s-12-32-25-40c-12-9-44-10-44-10s25-20,29-37c5-18-3-45-3-45s24,18,42,18s44-18,44-18s-7,38-5,45
	c3,8,31,36,31,36S125,127,118,132z M126,88c-5-12,1-33,1-33s-19,11-33,11c-13,0-31-11-31-11s5,20,1,33c-4,14-21,28-21,28s22,2,32,9
	s20,29,20,29s6-20,19-28c13-9,33-10,33-10S130,101,126,88z M109,119c-9,6-14,18-14,18s-6-12-15-19c-9-6-21-8-21-8c6-5,10-11,13-19
	c3-13,1-23,1-23s8,6,22,6s23-6,23-6s-4,13,0,23c4,9,13,20,13,20S118,112,109,119z M118,107l-13,5c-6,4-10,11-10,11l-10-11l-13-5
	c0,0,5-7,7-14c2-4,2-9,2-14c0,0,7,3,14,3c6,0,14-3,14-3s-2,8,1,15C112,100,118,107,118,107z"/>
</svg>
